<svg xmlns="http://www.w3.org/2000/svg" xmlns:xlink="http://www.w3.org/1999/xlink" version="1.1" x="0px" y="0px" viewBox="0 0 100 100" enable-background="new 0 0 100 100" xml:space="preserve"><path d="M72.1,22c0,0,0.3,0,0.4,0.2c0.1,0.3,0.2,0.6,0.2,1c0,1.2-0.9,2.1-2.1,2.1c-1.2,0-2.1-0.9-2.1-2.1c0-0.3,0.1-0.5,0.1-0.7  c0-0.1,0.2-0.1,0.2-0.1L72.1,22z M68.1,26c-0.2-0.3-0.6-0.3-0.9,0c-0.2,0.3-0.4,0.5-0.4,0.5c-0.1,0.1-0.1,0.2-0.1,0.4  c0,0.3,0.2,0.6,0.5,0.6c0.2,0,0.4-0.1,0.5-0.3c0.1,0.2,0.3,0.3,0.5,0.3c0.3,0,0.5-0.3,0.5-0.6c0-0.1,0-0.3-0.1-0.4L68.1,26z   M66.9,22.5c0-0.1-0.2-0.1-0.2-0.1L63.5,22c0,0-0.3,0-0.4,0.2c-0.1,0.3-0.2,0.6-0.2,1c0,1.2,0.9,2.1,2.1,2.1c1.2,0,2.1-0.9,2.1-2.1  C67.1,22.9,67,22.7,66.9,22.5z M94.9,59.7l-4,6.2v-6c0,0-1.1,1-1.8,1.7c-0.7,0.7-0.6-0.4-0.6-0.4v-3.6l-3.8,0.6l-5.4-11.9l2.4,42.6  H50.6l2.6-41.9L50,49.2l-11.5,4.1v-7.8l-2,0.8l6.7,42.5h-2.9l-6.6-41.4l-1.3,0.5c-0.8,0.3-1.7-0.3-1.7-1.2v-4.9  c0-0.7,0.6-1.3,1.3-1.3h0.7l-3.3-20.5C24.8,21.2,14.8,24.9,5,36.9c0,0,4.5-16.4,26.2-21.8l0.3,0.3l0.2,0.2l3.9,25h2.9v-0.5l11.1-2  l9.3-9l0,0c0.2-0.3,0.5-0.5,0.8-0.7c-0.7-1.3-1.2-2.5-1.4-3.3c-0.2-0.5-0.3-1-0.3-1.5v-2.5c0-2.2,0.9-4.2,2.5-5.7L65,12  c1.5-1.2,3.7-1.2,5.2,0l4.6,3.5c1.6,1.4,2.5,3.5,2.5,5.7v2.5c0,0.5-0.1,1-0.3,1.5c-0.4,1-1.1,2.9-2.2,4.5c0.2,0.2,0.4,0.5,0.6,0.7  l18.8,26.3l-1,0.2l1.5,1.7C95,58.9,95.1,59.3,94.9,59.7z M74.1,22.1c0-3.9-3.5-7-7.5-6.3c-2.4,0.4-4.4,2.2-5.1,4.5  c-0.8,2.8,0.3,5.4,2.1,6.9c0,0,0,0,0,0l0.6,0.4c0.1,0.1,0.2,0.3,0.1,0.4c-0.1,0.1-0.2,0.1-0.3,0.1c-0.1,0-0.1,0-0.2,0L63.8,28v1.7  c0,0.4,0.3,0.7,0.7,0.7l3.2-0.3c0.1,0,0.2,0,0.3,0l3.4,0.3c0.4,0,0.6-0.4,0.6-0.7V28l-0.4,0.1c-0.1,0-0.2,0-0.3,0  c-0.1,0-0.3-0.1-0.3-0.1c-0.1-0.1-0.1-0.3,0.1-0.4l0.5-0.3C73.1,26.1,74.1,24.2,74.1,22.1z"/><text x="0" y="115" fill="#000000" font-size="5px" font-weight="bold" font-family="'Helvetica Neue', Helvetica, Arial-Unicode, Arial, Sans-serif">Created by Andrew Cameron</text><text x="0" y="120" fill="#000000" font-size="5px" font-weight="bold" font-family="'Helvetica Neue', Helvetica, Arial-Unicode, Arial, Sans-serif">from the Noun Project</text></svg>