<svg xmlns="http://www.w3.org/2000/svg" xmlns:xlink="http://www.w3.org/1999/xlink" version="1.1" x="0px" y="0px" viewBox="0 0 100 100" enable-background="new 0 0 100 100" xml:space="preserve"><path fill="#000000" d="M81.223,7.365L40.96,95.824l-3.21-1.463l32.933-72.355c-6.838-1.783-13.31-2.688-19.265-2.688  c-11.874,0-19.746,3.614-24.259,6.646c-4.888,3.285-7.003,6.614-7.024,6.648c-0.139,0.221-0.377,0.346-0.624,0.346  c-0.1,0-0.2-0.021-0.296-0.062c-0.334-0.147-0.509-0.517-0.412-0.869c0.08-0.286,2.028-7.081,8.466-13.96  C33.198,11.729,44.209,4.176,63,4.176c4.758,0,9.857,0.489,15.176,1.445l2.273-0.472L81.223,7.365z"/></svg>